<?xml version="1.0" standalone="no"?>
<!DOCTYPE svg PUBLIC "-//W3C//DTD SVG 1.1//EN" "http://www.w3.org/Graphics/SVG/1.1/DTD/svg11.dtd">
<svg xmlns="http://www.w3.org/2000/svg" xmlns:xlink="http://www.w3.org/1999/xlink" xmlns:serif="http://www.serif.com/" width="2327" height="485" viewBox="0 0 2327 485" version="1.1" xml:space="preserve" style="fill-rule:evenodd;clip-rule:evenodd;stroke-linejoin:round;stroke-miterlimit:2;">
    <g transform="matrix(1,0,0,1,-5235.140625,0)">
        <g id="Pagina-3" serif:id="Pagina 3" transform="matrix(4.166667,0,0,4.166667,5235.140625,0)">
            <rect x="0" y="0" width="558.415" height="116.193" style="fill:none;"/>
            <clipPath id="_clip1">
                <rect x="0" y="0" width="558.415" height="116.193"/>
            </clipPath>
            <g clip-path="url(#_clip1)">
                <g id="Livello-1" serif:id="Livello 1">
                    <g transform="matrix(1,0,0,1,280.3159,59.7041)">
                        <path d="M21.164,4.204C61.762,4.779 65.783,27.014 61.259,51.064L23.083,51.072C23.861,43.282 38.26,11.204 -2.1,11.204C-3.377,11.204 -19.229,11.118 -19.229,11.118L-32.684,51.077L-78.469,51.087L-38.552,-59.68C-38.552,-59.68 -15.818,-59.685 24.711,-59.685C62.245,-59.685 77.74,-50.118 75.57,-26.221C74.321,-12.453 62.748,-2.444 42.41,1.935C39.091,2.647 20.456,4.194 21.164,4.204ZM0,-8.598C9.084,-8.498 20.267,-8.404 24.897,-10.579C30.538,-13.228 35.201,-18.528 36.365,-27.366C37.438,-35.524 29.551,-38.828 12.696,-38.828L-1.188,-38.828L-13.308,-8.603C-13.308,-8.603 -7.343,-8.681 0,-8.598ZM-178.14,51.077L-240.401,51.087L-240.41,51.077C-240.41,51.077 -240.457,51.059 -240.553,51.028C-271.761,49.825 -279.307,38.645 -279.188,32.427C-279.117,28.331 -278.984,23.869 -277.956,16.493L-234.674,16.493C-234.674,16.493 -237.321,27.523 -225.877,27.523C-219.748,27.523 -209.923,28.152 -196.472,28.152C-182.965,28.152 -177.015,24.674 -174.194,15.895C-171.317,7.127 -180.125,6.504 -187.061,6.103C-193.996,5.686 -218.115,4.884 -224.035,4.884C-235.87,4.884 -266.725,7.127 -261.618,-24.328C-256.527,-55.826 -210.747,-59.704 -205.419,-59.704L-154.354,-59.704C-144.772,-59.704 -128.806,-59.087 -120.251,-51.327C-111.653,-43.582 -118.411,-30.471 -120.182,-25.634L-162.633,-25.634C-162.633,-25.634 -161.12,-35.766 -169.457,-35.766L-205.555,-35.766C-205.555,-35.766 -216.657,-34.796 -216.657,-23.225C-216.149,-14.058 -209.415,-15.989 -205.085,-15.482C-200.72,-15.026 -173.474,-15.389 -159.497,-13.936C-145.498,-12.491 -134.929,-12.55 -128.376,-1.493C-126.77,1.201 -124.95,-0.453 -124.119,-2.081C-123.293,-3.724 -104.083,-59.704 -104.083,-59.704L-58.957,-59.704L-98.695,51.072L-142.585,51.077L-137.952,37.246C-139.134,37.668 -153.323,48.828 -178.33,50.969L-178.14,51.077ZM201.825,-59.68L271.906,-59.68L271.906,51.064L231.043,51.064L231.043,28.805L173.584,28.805L156.855,51.04L115.364,51.04L201.825,-59.68ZM231.043,11.378L231.043,-37.439L226.932,-37.439L187.869,11.378L231.043,11.378ZM145.895,-59.68L139.028,-40.925L94.251,-40.925L100.842,-59.68L145.895,-59.68ZM61.932,51.064L91.419,-32.858L136.074,-32.858L105.349,51.059L61.932,51.064Z" style="fill:rgb(22,41,131);"/>
                    </g>
                    <g transform="matrix(0,-1,-1,0,544.6316,88.6268)">
                        <path d="M-13.783,-13.783C-21.397,-13.783 -27.567,-7.614 -27.567,-0.002C-27.567,7.611 -21.397,13.783 -13.783,13.783C-6.173,13.783 0.001,7.611 0.001,-0.002C0.001,-7.614 -6.173,-13.783 -13.783,-13.783ZM-13.783,353.127C-21.397,353.127 -27.567,359.296 -27.567,366.908C-27.567,374.521 -21.397,380.692 -13.783,380.692C-6.173,380.692 0.001,374.521 0.001,366.908C0.001,359.296 -6.173,353.127 -13.783,353.127ZM-13.783,400.913C-21.397,400.913 -27.567,407.082 -27.567,414.694C-27.567,422.307 -21.397,428.479 -13.783,428.479C-6.173,428.479 0.001,422.307 0.001,414.694C0.001,407.082 -6.173,400.913 -13.783,400.913ZM-13.782,154.056C-21.396,154.056 -27.566,160.225 -27.566,167.837C-27.566,175.45 -21.396,181.623 -13.782,181.623C-6.173,181.623 0.002,175.45 0.002,167.837C0.002,160.225 -6.173,154.056 -13.782,154.056Z" style="fill:rgb(240,147,11);"/>
                    </g>
                </g>
            </g>
        </g>
    </g>
</svg>