<?xml version="1.0" standalone="no"?>
<!DOCTYPE svg PUBLIC "-//W3C//DTD SVG 1.1//EN" "http://www.w3.org/Graphics/SVG/1.1/DTD/svg11.dtd">
<svg xmlns="http://www.w3.org/2000/svg" xmlns:xlink="http://www.w3.org/1999/xlink" xmlns:serif="http://www.serif.com/" width="1171" height="588" viewBox="0 0 1171 588" version="1.1" xml:space="preserve" style="fill-rule:evenodd;clip-rule:evenodd;stroke-linejoin:round;stroke-miterlimit:2;">
    <g>
        <g transform="matrix(2.262276,0,0,2.262276,-621.899381,-1392.685053)">
            <g>
                <g transform="matrix(1,0,0,1,478.3662,863.1241)">
                    <path d="M0,-157.195C-43.337,-157.195 -78.595,-121.936 -78.595,-78.592C-78.595,-35.257 -43.337,0 0,0C43.343,0 78.604,-35.257 78.604,-78.592C78.604,-121.936 43.343,-157.195 0,-157.195M0,7.099C-47.251,7.099 -85.694,-31.342 -85.694,-78.592C-85.694,-125.849 -47.251,-164.294 0,-164.294C47.257,-164.294 85.702,-125.849 85.702,-78.592C85.702,-31.342 47.257,7.099 0,7.099" style="fill-rule:nonzero;"/>
                </g>
                <g transform="matrix(1,0,0,1,517.0791,723.9235)">
                    <path d="M0,42.152L19.043,42.152C11.108,17.118 -12.03,-0 -38.713,-0C-65.388,-0 -88.523,17.116 -96.464,42.152L-77.421,42.152C-74.321,39.062 -68.745,33.496 -68.257,32.996L-68.126,32.853C-66.724,31.31 -64.681,29.733 -60.163,29.733L-17.254,29.733C-12.742,29.733 -10.699,31.307 -9.296,32.848L-9.169,32.987C-8.673,33.498 -3.099,39.062 0,42.152M28.198,49.251L-2.935,49.251L-3.973,48.215C-4.363,47.826 -13.55,38.663 -14.246,37.946C-14.333,37.858 -14.437,37.748 -14.544,37.629C-14.9,37.236 -15.269,36.832 -17.254,36.832L-60.163,36.832C-62.149,36.832 -62.517,37.236 -62.874,37.629C-62.979,37.746 -63.081,37.855 -63.177,37.955C-63.87,38.665 -73.058,47.826 -73.448,48.215L-74.485,49.251L-105.619,49.251L-104.579,44.88C-97.3,14.275 -70.212,-7.099 -38.713,-7.099C-7.203,-7.099 19.884,14.276 27.159,44.88L28.198,49.251Z" style="fill-rule:nonzero;"/>
                </g>
                <g transform="matrix(1,0,0,1,478.9453,801.4419)">
                    <path d="M0,-22.631C-6.24,-22.631 -11.316,-17.554 -11.316,-11.316C-11.316,-5.075 -6.24,0 0,0C6.242,0 11.32,-5.075 11.32,-11.316C11.32,-17.554 6.242,-22.631 0,-22.631M0,7.099C-10.154,7.099 -18.413,-1.161 -18.413,-11.316C-18.413,-21.469 -10.154,-29.73 0,-29.73C10.156,-29.73 18.42,-21.469 18.42,-11.316C18.42,-1.161 10.156,7.099 0,7.099" style="fill-rule:nonzero;"/>
                </g>
                <g transform="matrix(1,0,0,1,419.1719,844.6067)">
                    <path d="M0,-47.036C4.846,-24.925 21.75,-7.279 43.628,-1.493C43.631,-1.677 43.631,-1.861 43.631,-2.047C43.631,-26.401 24.185,-46.304 0,-47.036M50.059,7.119L46.254,6.383C18.178,0.953 -3.528,-21.703 -7.757,-49.991L-8.332,-53.841L-4.445,-54.059C-3.273,-54.125 -2.299,-54.155 -1.383,-54.155C27.354,-54.155 50.73,-30.779 50.73,-2.047C50.73,-0.268 50.639,1.521 50.459,3.264L50.059,7.119Z" style="fill-rule:nonzero;"/>
                </g>
                <g transform="matrix(1,0,0,1,537.5664,844.5835)">
                    <path d="M0,-47.007C-24.107,-46.193 -43.471,-26.325 -43.471,-2.024C-43.471,-1.851 -43.469,-1.682 -43.467,-1.512C-21.67,-7.343 -4.829,-24.964 0,-47.007M-49.912,7.125L-50.305,3.254C-50.479,1.54 -50.568,-0.236 -50.568,-2.024C-50.568,-30.756 -27.193,-54.132 1.537,-54.132C2.506,-54.132 3.489,-54.103 4.459,-54.045L8.332,-53.816L7.76,-49.978C3.553,-21.756 -18.09,0.892 -46.094,6.378L-49.912,7.125Z" style="fill-rule:nonzero;"/>
                </g>
                <g transform="matrix(1,0,0,1,288.4102,641.3586)">
                    <path d="M0,174.258C9.275,180.043 25.272,185.45 42.521,185.45C85.392,185.45 104.581,157.563 104.581,129.922C104.339,106.107 89.704,87.723 67.294,83.123L64.373,82.523L64.373,76.459L66.667,75.537C86.646,67.512 97.646,52.117 97.646,32.194C97.646,12.179 85.097,-11.193 49.731,-11.193C32.567,-11.193 16.23,-4.954 6.647,1.679L10.843,13.925C19.543,8.243 32.042,3.039 45.019,3.039C71.019,3.039 80.283,20.294 80.283,36.443C80.283,48.256 75.09,58.098 65.262,64.905C57.39,70.358 46.878,73.486 36.421,73.486L26.494,73.486L26.494,86.199L36.421,86.199C59.397,86.199 86.343,97.483 86.663,129.277C86.851,140.688 82.726,151.549 75.343,159.054C67.405,167.122 56.271,171.214 42.244,171.214C27.876,171.214 13.722,166.097 4.366,160.917L0,174.258ZM42.521,192.767C20.793,192.767 2.551,185.203 -6.471,178.728L-8.648,177.164L0.328,149.735L4.325,152.362C6.122,153.542 22.46,163.9 42.244,163.9C54.235,163.9 63.618,160.542 70.128,153.924C76.144,147.809 79.505,138.861 79.35,129.373C79.081,102.93 56.998,93.515 36.421,93.515L19.179,93.515L19.179,66.17L36.421,66.17C51.11,66.17 72.968,58.252 72.968,36.443C72.968,28.599 70.245,10.355 45.019,10.355C31.662,10.355 18.467,16.967 11.225,22.627L7.177,25.792L-1.987,-0.954L0.063,-2.556C10.218,-10.497 29.514,-18.509 49.731,-18.509C87.884,-18.509 104.962,6.956 104.962,32.194C104.962,52.098 95.062,68.562 77.48,78.461C98.422,86.316 111.65,105.654 111.896,129.886C111.896,147.034 105.562,162.674 94.06,173.963C81.523,186.264 63.702,192.767 42.521,192.767" style="fill-rule:nonzero;"/>
                </g>
                <g transform="matrix(1,0,0,1,551.875,712.6709)">
                    <path d="M0,-33.444C-9.225,-33.444 -16.727,-25.941 -16.727,-16.721C-16.727,-7.5 -9.225,-0.001 0,-0.001C9.22,-0.001 16.723,-7.5 16.723,-16.721C16.723,-25.941 9.22,-33.444 0,-33.444M0,7.099C-13.137,7.099 -23.824,-3.587 -23.824,-16.721C-23.824,-29.856 -13.137,-40.543 0,-40.543C13.134,-40.543 23.82,-29.856 23.82,-16.721C23.82,-3.587 13.134,7.099 0,7.099" style="fill-rule:nonzero;"/>
                </g>
                <g transform="matrix(1,0,0,1,551.875,725.2785)">
                    <path d="M0,-58.659C-16.173,-58.659 -29.332,-45.502 -29.332,-29.329C-29.332,-13.157 -16.173,0 0,0C16.172,0 29.328,-13.157 29.328,-29.329C29.328,-45.502 16.172,-58.659 0,-58.659M0,7.099C-20.088,7.099 -36.43,-9.241 -36.43,-29.329C-36.43,-49.415 -20.088,-65.758 0,-65.758C20.084,-65.758 36.426,-49.415 36.426,-29.329C36.426,-9.241 20.084,7.099 0,7.099" style="fill-rule:nonzero;"/>
                </g>
            </g>
            <g transform="matrix(1,0,0,1,0,-10.035658)">
                <g transform="matrix(1,0,0,1,407.3896,655.2496)">
                    <path d="M0,-18.219L-0.083,-18.219L-5,-15.666L-5.865,-19.626L0.703,-22.948L4.915,-22.948L4.915,4.729L0,4.729L0,-18.219Z" style="fill-rule:nonzero;"/>
                </g>
                <g transform="matrix(1,0,0,1,426.2754,650.8684)">
                    <path d="M0,-9.453C0,-6.601 1.609,-4.388 4.419,-4.388C6.484,-4.388 7.975,-5.408 8.756,-6.684C8.922,-7.069 9.046,-7.495 9.046,-8.218C9.046,-11.965 7.684,-15.159 4.378,-15.159C1.814,-15.159 0,-12.815 0,-9.453M-2.689,5.364C-1.859,5.449 -1.075,5.406 0.123,5.277C2.148,5.108 4.09,4.385 5.576,3.15C7.354,1.703 8.551,-0.385 9.046,-3.023L8.964,-3.023C7.602,-1.491 5.658,-0.599 3.098,-0.599C-1.569,-0.599 -5.043,-4.046 -5.043,-9.154C-5.043,-14.477 -1.075,-19.032 4.627,-19.032C10.906,-19.032 14.21,-14.009 14.21,-7.239C14.21,-1.32 12.354,2.893 9.543,5.662C7.229,7.876 4.008,9.195 0.371,9.452C-0.786,9.579 -1.903,9.579 -2.689,9.537L-2.689,5.364Z" style="fill-rule:nonzero;"/>
                </g>
                <g transform="matrix(1,0,0,1,448.4219,650.8684)">
                    <path d="M0,-9.453C0,-6.601 1.613,-4.388 4.422,-4.388C6.488,-4.388 7.977,-5.408 8.758,-6.684C8.925,-7.069 9.049,-7.495 9.049,-8.218C9.049,-11.965 7.688,-15.159 4.38,-15.159C1.818,-15.159 0,-12.815 0,-9.453M-2.686,5.364C-1.859,5.449 -1.074,5.406 0.123,5.277C2.148,5.108 4.09,4.385 5.578,3.15C7.354,1.703 8.554,-0.385 9.049,-3.023L8.969,-3.023C7.602,-1.491 5.658,-0.599 3.098,-0.599C-1.569,-0.599 -5.042,-4.046 -5.042,-9.154C-5.042,-14.477 -1.074,-19.032 4.627,-19.032C10.91,-19.032 14.213,-14.009 14.213,-7.239C14.213,-1.32 12.354,2.893 9.543,5.662C7.23,7.876 4.008,9.195 0.371,9.452C-0.785,9.579 -1.899,9.579 -2.686,9.537L-2.686,5.364Z" style="fill-rule:nonzero;"/>
                </g>
                <g transform="matrix(1,0,0,1,479.8252,641.4555)">
                    <path d="M0,9.413C0,6.177 -1.694,3.919 -4.667,3.919C-6.569,3.919 -8.264,5.109 -9.049,6.77C-9.254,7.198 -9.376,7.71 -9.376,8.434C-9.298,12.096 -7.643,15.075 -4.298,15.075C-1.694,15.075 0,12.731 0,9.413M2.356,-5.404C1.614,-5.448 0.786,-5.404 -0.205,-5.277C-5.864,-4.596 -8.554,-1.063 -9.21,2.77L-9.087,2.77C-7.767,1.195 -5.741,0.086 -3.057,0.086C1.571,0.086 5.165,3.494 5.165,9.114C5.165,14.393 1.404,18.992 -4.298,18.992C-10.823,18.992 -14.419,13.883 -14.419,7.026C-14.419,1.707 -12.561,-2.597 -9.749,-5.321C-7.313,-7.746 -4.048,-9.108 -0.205,-9.406C0.907,-9.579 1.737,-9.579 2.356,-9.537L2.356,-5.404Z" style="fill-rule:nonzero;"/>
                </g>
                <g transform="matrix(1,0,0,1,416.5215,665.2909)">
                    <path d="M0,28.143L0,24.951L3.181,21.927C9.503,15.882 12.479,12.56 12.521,8.899C12.521,6.43 11.238,4.257 7.729,4.257C5.33,4.257 3.349,5.492 1.981,6.557L0.496,2.852C2.439,1.236 5.371,0 8.759,0C14.711,0 17.6,3.875 17.6,8.388C17.6,13.24 14.213,17.158 9.503,21.627L7.189,23.717L7.189,23.801L18.18,23.801L18.18,28.143L0,28.143Z" style="fill-rule:nonzero;"/>
                </g>
                <g transform="matrix(1,0,0,1,443.4238,679.553)">
                    <path d="M0,0.088C0,6.855 1.774,10.347 4.543,10.347C7.56,10.347 9.087,6.6 9.087,-0.043C9.087,-6.471 7.643,-10.261 4.583,-10.261C1.898,-10.261 0,-6.809 0,0.088M14.211,-0.169C14.211,8.773 10.824,14.35 4.379,14.35C-1.779,14.35 -5.084,8.559 -5.127,0.131C-5.127,-8.516 -1.57,-14.262 4.706,-14.262C11.195,-14.262 14.211,-8.3 14.211,-0.169" style="fill-rule:nonzero;"/>
                </g>
                <g transform="matrix(1,0,0,1,460.8174,665.2909)">
                    <path d="M0,28.143L0,24.951L3.182,21.927C9.503,15.882 12.479,12.56 12.519,8.899C12.519,6.43 11.238,4.257 7.726,4.257C5.331,4.257 3.346,5.492 1.985,6.557L0.497,2.852C2.437,1.236 5.372,0 8.759,0C14.709,0 17.604,3.875 17.604,8.388C17.604,13.24 14.214,17.158 9.503,21.627L7.19,23.717L7.19,23.801L18.179,23.801L18.179,28.143L0,28.143Z" style="fill-rule:nonzero;"/>
                </g>
                <g transform="matrix(1,0,0,1,496.9336,674.9106)">
                    <path d="M0,9.414C0,6.178 -1.695,3.92 -4.671,3.92C-6.568,3.92 -8.264,5.111 -9.049,6.77C-9.257,7.2 -9.38,7.711 -9.38,8.434C-9.297,12.096 -7.646,15.074 -4.299,15.074C-1.695,15.074 0,12.733 0,9.414M2.354,-5.402C1.608,-5.446 0.782,-5.402 -0.21,-5.276C-5.871,-4.597 -8.555,-1.062 -9.216,2.77L-9.092,2.77C-7.771,1.195 -5.746,0.087 -3.059,0.087C1.568,0.087 5.164,3.495 5.164,9.113C5.164,14.394 1.404,18.992 -4.299,18.992C-10.825,18.992 -14.422,13.883 -14.422,7.027C-14.422,1.706 -12.562,-2.595 -9.755,-5.32C-7.314,-7.747 -4.052,-9.108 -0.21,-9.405C0.908,-9.578 1.732,-9.578 2.354,-9.535L2.354,-5.402Z" style="fill-rule:nonzero;"/>
                </g>
            </g>
        </g>
        <g id="Da-30-anni-facciamo-strada-insieme." serif:id="Da 30 anni facciamo strada insieme." transform="matrix(1,0,0,1,739.465544,98)">
            <path d="M7.374,70.8C11.643,71.3 16.688,71.6 22.703,71.6C35.413,71.6 45.503,68.2 51.616,61.9C57.728,55.7 61.027,46.7 61.027,35.7C61.027,24.8 57.631,17 51.81,11.5C46.085,6 37.45,3.1 25.323,3.1C18.628,3.1 12.516,3.7 7.374,4.5L7.374,70.8ZM15.815,10.9C18.046,10.4 21.345,10 25.711,10C43.563,10 52.295,20.1 52.198,36C52.198,54.2 42.399,64.6 24.353,64.6C21.054,64.6 17.949,64.5 15.815,64.1L15.815,10.9Z" style="fill-rule:nonzero;"/>
            <path d="M105.463,71C104.881,67.7 104.687,63.6 104.687,59.4L104.687,41.3C104.687,31.6 101.194,21.5 86.835,21.5C80.916,21.5 75.289,23.2 71.408,25.8L73.349,31.6C76.647,29.4 81.207,28 85.573,28C95.179,28 96.246,35.2 96.246,39.2L96.246,40.2C78.103,40.1 68.012,46.5 68.012,58.2C68.012,65.2 72.864,72.1 82.372,72.1C89.066,72.1 94.111,68.7 96.731,64.9L97.022,64.9L97.701,71L105.463,71ZM96.44,54.7C96.44,55.6 96.246,56.6 95.955,57.5C94.596,61.6 90.716,65.6 84.603,65.6C80.237,65.6 76.55,62.9 76.55,57.2C76.55,47.8 87.126,46.1 96.44,46.3L96.44,54.7Z" style="fill-rule:nonzero;"/>
            <path d="M136.025,67.7C139.13,69.8 145.339,72.1 152.422,72.1C167.557,72.1 175.416,63 175.416,52.6C175.416,43.5 169.109,37.5 161.348,35.9L161.348,35.7C169.109,32.8 172.99,27.1 172.99,20.4C172.99,12.5 167.363,4.9 154.944,4.9C148.153,4.9 141.749,7.4 138.45,9.9L140.682,16.3C143.399,14.3 148.25,12 153.295,12C161.154,12 164.355,16.6 164.355,21.8C164.355,29.5 156.496,32.8 150.287,32.8L145.533,32.8L145.533,39.4L150.287,39.4C158.534,39.4 166.49,43.3 166.587,52.4C166.684,57.8 163.288,65 152.325,65C146.406,65 140.779,62.5 138.353,60.9L136.025,67.7Z" style="fill-rule:nonzero;"/>
            <path d="M207.142,4.9C194.335,4.9 185.215,16.9 185.215,38.7C185.409,60.2 193.753,72.1 206.075,72.1C220.046,72.1 228.002,59.9 228.002,37.8C228.002,17.1 220.434,4.9 207.142,4.9ZM206.657,11.7C215.486,11.7 219.464,22.2 219.464,38.2C219.464,54.8 215.292,65.3 206.56,65.3C198.798,65.3 193.753,55.7 193.753,38.8C193.753,21.1 199.186,11.7 206.657,11.7Z" style="fill-rule:nonzero;"/>
            <path d="M292.909,71C292.327,67.7 292.133,63.6 292.133,59.4L292.133,41.3C292.133,31.6 288.64,21.5 274.281,21.5C268.363,21.5 262.736,23.2 258.855,25.8L260.795,31.6C264.094,29.4 268.654,28 273.02,28C282.625,28 283.692,35.2 283.692,39.2L283.692,40.2C265.549,40.1 255.459,46.5 255.459,58.2C255.459,65.2 260.31,72.1 269.818,72.1C276.513,72.1 281.558,68.7 284.177,64.9L284.469,64.9L285.148,71L292.909,71ZM283.886,54.7C283.886,55.6 283.692,56.6 283.401,57.5C282.043,61.6 278.162,65.6 272.05,65.6C267.684,65.6 263.997,62.9 263.997,57.2C263.997,47.8 274.572,46.1 283.886,46.3L283.886,54.7Z" style="fill-rule:nonzero;"/>
            <path d="M305.91,71L314.448,71L314.448,41.9C314.448,40.4 314.642,38.9 315.03,37.8C316.486,32.9 320.852,28.8 326.479,28.8C334.532,28.8 337.345,35.3 337.345,43.1L337.345,71L345.883,71L345.883,42.1C345.883,25.5 335.793,21.5 329.293,21.5C321.531,21.5 316.098,26 313.769,30.6L313.575,30.6L313.09,22.6L305.522,22.6C305.813,26.6 305.91,30.7 305.91,35.7L305.91,71Z" style="fill-rule:nonzero;"/>
            <path d="M359.758,71L368.296,71L368.296,41.9C368.296,40.4 368.49,38.9 368.878,37.8C370.333,32.9 374.699,28.8 380.326,28.8C388.379,28.8 391.193,35.3 391.193,43.1L391.193,71L399.731,71L399.731,42.1C399.731,25.5 389.64,21.5 383.14,21.5C375.378,21.5 369.945,26 367.616,30.6L367.422,30.6L366.937,22.6L359.369,22.6C359.661,26.6 359.758,30.7 359.758,35.7L359.758,71Z" style="fill-rule:nonzero;"/>
            <path d="M422.143,71L422.143,22.6L413.605,22.6L413.605,71L422.143,71ZM417.874,3.5C414.769,3.5 412.538,5.9 412.538,9C412.538,12 414.672,14.4 417.68,14.4C421.075,14.4 423.21,12 423.113,9C423.113,5.9 421.075,3.5 417.874,3.5Z" style="fill-rule:nonzero;"/>
            <path d="M16.397,171L16.397,129.3L27.748,129.3L27.748,122.6L16.397,122.6L16.397,120C16.397,112.6 18.24,106 25.517,106C27.942,106 29.689,106.5 30.95,107.1L32.114,100.3C30.465,99.6 27.845,98.9 24.838,98.9C20.86,98.9 16.591,100.2 13.389,103.4C9.411,107.3 7.956,113.5 7.956,120.3L7.956,122.6L1.358,122.6L1.358,129.3L7.956,129.3L7.956,171L16.397,171Z" style="fill-rule:nonzero;"/>
            <path d="M69.177,171C68.595,167.7 68.401,163.6 68.401,159.4L68.401,141.3C68.401,131.6 64.908,121.5 50.548,121.5C44.63,121.5 39.003,123.2 35.122,125.8L37.062,131.6C40.361,129.4 44.921,128 49.287,128C58.892,128 59.96,135.2 59.96,139.2L59.96,140.2C41.816,140.1 31.726,146.5 31.726,158.2C31.726,165.2 36.577,172.1 46.085,172.1C52.78,172.1 57.825,168.7 60.445,164.9L60.736,164.9L61.415,171L69.177,171ZM60.154,154.7C60.154,155.6 59.96,156.6 59.669,157.5C58.31,161.6 54.429,165.6 48.317,165.6C43.951,165.6 40.264,162.9 40.264,157.2C40.264,147.8 50.84,146.1 60.154,146.3L60.154,154.7Z" style="fill-rule:nonzero;"/>
            <path d="M114.195,162.6C111.769,163.7 108.568,165 103.717,165C94.402,165 87.417,158.1 87.417,146.9C87.417,136.8 93.238,128.6 104.008,128.6C108.665,128.6 111.866,129.7 113.904,130.9L115.844,124.1C113.516,122.9 109.053,121.6 104.008,121.6C88.678,121.6 78.782,132.4 78.782,147.3C78.782,162.1 87.999,172 102.164,172C108.471,172 113.419,170.4 115.65,169.2L114.195,162.6Z" style="fill-rule:nonzero;"/>
            <path d="M157.061,162.6C154.635,163.7 151.433,165 146.582,165C137.268,165 130.283,158.1 130.283,146.9C130.283,136.8 136.104,128.6 146.873,128.6C151.53,128.6 154.732,129.7 156.77,130.9L158.71,124.1C156.382,122.9 151.919,121.6 146.873,121.6C131.544,121.6 121.648,132.4 121.648,147.3C121.648,162.1 130.865,172 145.03,172C151.336,172 156.285,170.4 158.516,169.2L157.061,162.6Z" style="fill-rule:nonzero;"/>
            <path d="M177.047,171L177.047,122.6L168.509,122.6L168.509,171L177.047,171ZM172.778,103.5C169.674,103.5 167.442,105.9 167.442,109C167.442,112 169.577,114.4 172.584,114.4C175.98,114.4 178.115,112 178.018,109C178.018,105.9 175.98,103.5 172.778,103.5Z" style="fill-rule:nonzero;"/>
            <path d="M224.976,171C224.394,167.7 224.2,163.6 224.2,159.4L224.2,141.3C224.2,131.6 220.707,121.5 206.348,121.5C200.43,121.5 194.802,123.2 190.921,125.8L192.862,131.6C196.161,129.4 200.721,128 205.087,128C214.692,128 215.759,135.2 215.759,139.2L215.759,140.2C197.616,140.1 187.526,146.5 187.526,158.2C187.526,165.2 192.377,172.1 201.885,172.1C208.579,172.1 213.625,168.7 216.244,164.9L216.535,164.9L217.214,171L224.976,171ZM215.953,154.7C215.953,155.6 215.759,156.6 215.468,157.5C214.11,161.6 210.229,165.6 204.116,165.6C199.75,165.6 196.064,162.9 196.064,157.2C196.064,147.8 206.639,146.1 215.953,146.3L215.953,154.7Z" style="fill-rule:nonzero;"/>
            <path d="M237.977,171L246.321,171L246.321,141.8C246.321,140.3 246.515,138.8 247,137.5C248.358,133.1 252.239,128.7 257.576,128.7C264.076,128.7 267.375,134.3 267.375,142L267.375,171L275.719,171L275.719,141.1C275.719,139.5 276.01,137.9 276.398,136.7C277.853,132.4 281.637,128.7 286.488,128.7C293.377,128.7 296.675,134.3 296.675,143.6L296.675,171L305.019,171L305.019,142.5C305.019,125.7 295.802,121.5 289.593,121.5C285.13,121.5 282.025,122.7 279.211,124.9C277.271,126.4 275.428,128.5 273.972,131.2L273.778,131.2C271.741,125.5 266.89,121.5 260.486,121.5C252.724,121.5 248.358,125.8 245.739,130.4L245.448,130.4L245.06,122.6L237.589,122.6C237.88,126.6 237.977,130.7 237.977,135.7L237.977,171Z" style="fill-rule:nonzero;"/>
            <path d="M338.783,121.5C325.782,121.5 315.498,131 315.498,147.2C315.498,162.5 325.297,172.1 338.007,172.1C349.358,172.1 361.389,164.3 361.389,146.4C361.389,131.6 352.269,121.5 338.783,121.5ZM338.589,128.1C348.679,128.1 352.657,138.5 352.657,146.7C352.657,157.6 346.545,165.5 338.395,165.5C330.051,165.5 324.133,131.6 338.783,121.5ZM338.589,128.1C348.679,128.1 352.657,138.5 352.657,146.7C352.657,157.6 346.545,165.5 338.395,165.5C330.051,165.5 324.133,157.5 324.133,146.9C324.133,137.7 328.499,128.1 338.589,128.1Z" style="fill-rule:nonzero;"/>
            <path d="M3.784,268.7C7.083,270.7 11.837,272 16.979,272C28.136,272 34.54,266 34.54,257.5C34.54,250.3 30.368,246.1 22.218,242.9C16.106,240.5 13.292,238.7 13.292,234.7C13.292,231.1 16.106,228.1 21.151,228.1C25.517,228.1 28.913,229.7 30.756,230.9L32.89,224.5C30.271,222.9 26.099,221.5 21.345,221.5C11.255,221.5 5.142,227.9 5.142,235.7C5.142,241.5 9.12,246.3 17.561,249.4C23.867,251.8 26.293,254.1 26.293,258.3C26.293,262.3 23.382,265.5 17.173,265.5C12.904,265.5 8.441,263.7 5.918,262L3.784,268.7Z" style="fill-rule:nonzero;"/>
            <path d="M47.444,211L47.444,222.6L40.167,222.6L40.167,229.3L47.444,229.3L47.444,255.7C47.444,261.4 48.317,265.7 50.743,268.3C52.78,270.7 55.982,272 59.96,272C63.258,272 65.878,271.5 67.527,270.8L67.139,264.2C66.072,264.5 64.423,264.8 62.191,264.8C57.437,264.8 55.788,261.4 55.788,255.4L55.788,229.3L68.012,229.3L68.012,222.6L55.788,222.6L55.788,208.7L47.444,211Z" style="fill-rule:nonzero;"/>
            <path d="M77.618,271L86.059,271L86.059,245.2C86.059,243.7 86.253,242.3 86.447,241.1C87.611,234.5 91.88,229.8 97.895,229.8C99.059,229.8 99.933,229.9 100.806,230.1L100.806,221.8C100.03,221.6 99.351,221.5 98.38,221.5C92.656,221.5 87.514,225.6 85.379,232.1L84.991,232.1L84.7,222.6L77.23,222.6C77.521,227.1 77.618,232 77.618,237.7L77.618,271Z" style="fill-rule:nonzero;"/>
            <path d="M142.607,271C142.025,267.7 141.831,263.6 141.831,259.4L141.831,241.3C141.831,231.6 138.338,221.5 123.979,221.5C118.061,221.5 112.434,223.2 108.553,225.8L110.493,231.6C113.792,229.4 118.352,228 122.718,228C132.323,228 133.39,235.2 133.39,239.2L133.39,240.2C115.247,240.1 105.157,246.5 105.157,258.2C105.157,265.2 110.008,272.1 119.516,272.1C126.211,272.1 131.256,268.7 133.875,264.9L134.167,264.9L134.846,271L142.607,271ZM133.584,254.7C133.584,255.6 133.39,256.6 133.099,257.5C131.741,261.6 127.86,265.6 121.748,265.6C117.382,265.6 113.695,262.9 113.695,257.2C113.695,247.8 124.27,246.1 133.584,246.3L133.584,254.7Z" style="fill-rule:nonzero;"/>
            <path d="M187.626,200L187.626,228.9L187.432,228.9C185.297,225 180.446,221.5 173.266,221.5C161.818,221.5 152.116,231.4 152.213,247.5C152.213,262.2 160.945,272.1 172.296,272.1C179.961,272.1 185.685,268 188.305,262.6L188.499,262.6L188.887,271L196.552,271C196.261,267.7 196.164,262.8 196.164,258.5L196.164,200L187.626,200ZM187.626,250.7C187.626,252.1 187.529,253.3 187.238,254.5C185.685,261.1 180.446,265 174.722,265C165.505,265 160.848,256.9 160.848,247.1C160.848,236.4 166.087,228.4 174.916,228.4C181.319,228.4 185.976,233 187.238,238.6C187.529,239.7 187.626,241.2 187.626,242.3L187.626,250.7Z" style="fill-rule:nonzero;"/>
            <path d="M244.092,271C243.51,267.7 243.316,263.6 243.316,259.4L243.316,241.3C243.316,231.6 239.823,221.5 225.464,221.5C219.546,221.5 213.919,223.2 210.038,225.8L211.978,231.6C215.277,229.4 219.837,228 224.203,228C233.808,228 234.875,235.2 234.875,239.2L234.875,240.2C216.732,240.1 206.642,246.5 206.642,258.2C206.642,265.2 211.493,272.1 221.001,272.1C227.696,272.1 232.741,268.7 235.36,264.9L235.652,264.9L236.331,271L244.092,271ZM235.069,254.7C235.069,255.6 234.875,256.6 234.584,257.5C233.226,261.6 229.345,265.6 223.233,265.6C218.867,265.6 215.18,262.9 215.18,257.2C215.18,247.8 225.755,246.1 235.069,246.3L235.069,254.7Z" style="fill-rule:nonzero;"/>
            <path d="M15.621,371L15.621,322.6L7.083,322.6L7.083,371L15.621,371ZM11.352,303.5C8.247,303.5 6.015,305.9 6.015,309C6.015,312 8.15,314.4 11.158,314.4C14.553,314.4 16.688,312 16.591,309C16.591,305.9 14.553,303.5 11.352,303.5Z" style="fill-rule:nonzero;"/>
            <path d="M29.786,371L38.324,371L38.324,341.9C38.324,340.4 38.518,338.9 38.906,337.8C40.361,332.9 44.727,328.8 50.354,328.8C58.407,328.8 61.221,335.3 61.221,343.1L61.221,371L69.759,371L69.759,342.1C69.759,325.5 59.669,321.5 53.168,321.5C45.406,321.5 39.973,326 37.645,330.6L37.45,330.6L36.965,322.6L29.398,322.6C29.689,326.6 29.786,330.7 29.786,335.7L29.786,371Z" style="fill-rule:nonzero;"/>
            <path d="M80.334,368.7C83.633,370.7 88.387,372 93.529,372C104.687,372 111.09,366 111.09,357.5C111.09,350.3 106.918,346.1 98.768,342.9C92.656,340.5 89.842,338.7 89.842,334.7C89.842,331.1 92.656,328.1 97.701,328.1C102.067,328.1 105.463,329.7 107.306,330.9L109.441,324.5C106.821,322.9 102.649,321.5 97.895,321.5C87.805,321.5 81.693,327.9 81.693,335.7C81.693,341.5 85.67,346.3 94.111,349.4C100.418,351.8 102.843,354.1 102.843,358.3C102.843,362.3 99.933,365.5 93.723,365.5C89.454,365.5 84.991,363.7 82.469,362L80.334,368.7Z" style="fill-rule:nonzero;"/>
            <path d="M130.592,371L130.592,322.6L122.054,322.6L122.054,371L130.592,371ZM126.323,303.5C123.218,303.5 120.986,305.9 120.986,309C120.986,312 123.121,314.4 126.129,314.4C129.524,314.4 131.659,312 131.562,309C131.562,305.9 129.524,303.5 126.323,303.5Z" style="fill-rule:nonzero;"/>
            <path d="M182.498,348.4C182.595,347.5 182.789,346.1 182.789,344.3C182.789,335.4 178.715,321.5 163.385,321.5C149.705,321.5 141.361,333 141.361,347.6C141.361,362.2 149.996,372 164.452,372C171.923,372 177.065,370.4 180.073,369L178.618,362.7C175.416,364.1 171.729,365.2 165.617,365.2C157.079,365.2 149.705,360.3 149.511,348.4L182.498,348.4ZM149.608,342.1C150.287,336 154.071,327.8 162.706,327.8C172.311,327.8 174.64,336.5 174.543,342.1L149.608,342.1Z" style="fill-rule:nonzero;"/>
            <path d="M193.365,371L201.709,371L201.709,341.8C201.709,340.3 201.903,338.8 202.388,337.5C203.746,333.1 207.627,328.7 212.963,328.7C219.464,328.7 222.763,334.3 222.763,342L222.763,371L231.106,371L231.106,341.1C231.106,339.5 231.397,337.9 231.786,336.7C233.241,332.4 237.025,328.7 241.876,328.7C248.764,328.7 252.063,334.3 252.063,343.6L252.063,371L260.407,371L260.407,342.5C260.407,325.7 251.19,321.5 244.981,321.5C240.518,321.5 237.413,322.7 234.599,324.9C232.659,326.4 230.815,328.5 229.36,331.2L229.166,331.2C227.129,325.5 222.277,321.5 215.874,321.5C208.112,321.5 203.746,325.8 201.127,330.4L200.836,330.4L200.447,322.6L192.977,322.6C193.268,326.6 193.365,330.7 193.365,335.7L193.365,371Z" style="fill-rule:nonzero;"/>
            <path d="M312.023,348.4C312.12,347.5 312.314,346.1 312.314,344.3C312.314,335.4 308.239,321.5 292.909,321.5C279.229,321.5 270.885,333 270.885,347.6C270.885,362.2 279.52,372 293.977,372C301.447,372 306.59,370.4 309.597,369L308.142,362.7C304.94,364.1 301.253,365.2 295.141,365.2C286.603,365.2 279.229,360.3 279.035,348.4L312.023,348.4ZM279.132,342.1C279.811,336 283.595,327.8 292.23,327.8C301.835,327.8 304.164,336.5 304.067,342.1L279.132,342.1Z" style="fill-rule:nonzero;"/>
            <path d="M325.376,372.1C328.966,372.1 331.197,369.4 331.197,365.8C331.197,362.1 328.869,359.5 325.473,359.5C322.077,359.5 319.652,362.1 319.652,365.8C319.652,369.4 321.98,372.1 325.376,372.1Z" style="fill-rule:nonzero;"/>
        </g>
    </g>
</svg>
